<svg width="381" height="140" viewBox="0 0 381 140" fill="none" xmlns="http://www.w3.org/2000/svg">
<path d="M13.0246 39.35C17.2746 39.35 19.7996 36.775 19.7996 33.75C19.7996 31.1 18.3246 29.65 16.0996 28.725L13.6746 27.725C12.0996 27.1 10.7746 26.6 10.7746 25.275C10.7746 24.075 11.7996 23.35 13.4246 23.35C14.9496 23.35 16.1746 23.9 17.3746 24.875L19.2246 22.55C17.7246 21.025 15.5746 20.175 13.4246 20.175C9.69961 20.175 7.02461 22.5 7.02461 25.525C7.02461 28.2 8.92461 29.725 10.7746 30.475L13.2496 31.525C14.8996 32.225 16.0246 32.675 16.0246 34.05C16.0246 35.325 15.0246 36.15 13.0996 36.15C11.4746 36.15 9.69961 35.35 8.39961 34.125L6.27461 36.675C8.07461 38.4 10.5246 39.35 13.0246 39.35ZM26.9969 39.35C28.2469 39.35 29.2219 39.075 29.9719 38.825L29.3719 36.15C28.9719 36.3 28.4469 36.475 27.9719 36.475C26.7469 36.475 26.0719 35.725 26.0719 34.125V27.9H29.5469V25.025H26.0719V21.225H23.0219L22.6219 25.025L20.4469 25.175V27.9H22.3969V34.125C22.3969 37.25 23.6719 39.35 26.9969 39.35ZM37.909 39.35C39.634 39.35 41.384 38.775 42.759 37.825L41.534 35.55C40.509 36.175 39.509 36.525 38.384 36.525C36.309 36.525 34.809 35.35 34.484 33.05H43.134C43.209 32.7 43.284 32.05 43.284 31.35C43.284 27.475 41.309 24.675 37.434 24.675C34.134 24.675 30.934 27.475 30.934 32.025C30.934 36.65 33.984 39.35 37.909 39.35ZM34.434 30.6C34.734 28.55 36.034 27.5 37.509 27.5C39.309 27.5 40.159 28.7 40.159 30.6H34.434ZM46.3354 44.375H50.0104V40.125L49.8854 37.85C50.9354 38.825 52.1354 39.35 53.3354 39.35C56.4104 39.35 59.2854 36.6 59.2854 31.8C59.2854 27.475 57.2354 24.675 53.7854 24.675C52.2854 24.675 50.8354 25.45 49.6854 26.475H49.6104L49.3104 25.025H46.3354V44.375ZM52.5354 36.325C51.7854 36.325 50.8854 36.075 50.0104 35.3V29.125C50.9604 28.15 51.8104 27.675 52.7354 27.675C54.6854 27.675 55.5104 29.15 55.5104 31.85C55.5104 34.875 54.2104 36.325 52.5354 36.325ZM67.1633 39H79.5633V35.9H75.5133C74.6383 35.9 73.4133 36.025 72.4883 36.125C75.7883 32.675 78.7133 29.4 78.7133 26.275C78.7133 22.85 76.3633 20.65 72.8883 20.65C70.3633 20.65 68.6883 21.625 66.9883 23.45L69.0133 25.45C69.9633 24.45 71.0383 23.525 72.4133 23.525C74.1883 23.525 75.1633 24.625 75.1633 26.45C75.1633 29.15 71.9883 32.275 67.1633 36.9V39ZM84.9094 39.35C86.2094 39.35 87.2094 38.325 87.2094 36.95C87.2094 35.575 86.2094 34.575 84.9094 34.575C83.5844 34.575 82.6344 35.575 82.6344 36.95C82.6344 38.325 83.5844 39.35 84.9094 39.35ZM95.6533 29.5V32.15H116.603V29.5H95.6533ZM104.728 31.175V36.05H108.078V31.175H104.728ZM98.2283 19.05V27.65H113.953V19.05H98.2283ZM110.678 21.65V25.05H101.478V21.65H110.678ZM98.0783 38.175V40.825H114.303V38.175H98.0783ZM98.0783 34.1V39.05H101.378V34.1H98.0783ZM135.376 18.075V41.225H138.526V18.075H135.376ZM127.751 25.975V28.675H131.576V25.975H127.751ZM130.701 18.45V40.175H133.801V18.45H130.701ZM122.751 21.85V24.225C122.751 28.175 121.576 32.325 118.176 34.45L120.151 36.9C123.826 34.6 125.251 29.425 125.251 24.225V21.85H122.751ZM123.501 21.85V24.225C123.501 29.325 124.851 34.175 128.526 36.35L130.476 33.925C127.126 31.975 125.976 28.075 125.976 24.225V21.85H123.501ZM119.051 20.4V23.075H129.376V20.4H119.051ZM165.306 18.075V41.225H168.481V18.075H165.306ZM162.381 26.8V29.45H166.206V26.8H162.381ZM155.481 20.9V21.6C155.481 27.15 153.631 31.05 148.356 34.175L150.281 36.475C156.756 32.7 158.656 27.425 158.656 20.9H155.481ZM149.531 20.9V23.575H156.456V20.9H149.531ZM160.181 18.675V40.225H163.281V18.675H160.181ZM180.379 18.75V19.825C180.379 22.55 177.754 25.575 172.429 26.275L173.729 28.95C179.804 28.05 183.304 24.275 183.304 19.825V18.75H180.379ZM181.004 18.75V19.825C181.004 24.275 184.504 28.05 190.579 28.95L191.854 26.275C186.554 25.575 183.904 22.525 183.904 19.825V18.75H181.004ZM180.404 32.75V41.225H183.704V32.75H180.404ZM171.679 30.65V33.35H192.604V30.65H171.679ZM194.652 28.45V30.875H215.627V28.45H194.652ZM197.002 32.025V34.275H209.852V35.425H197.052V39.5H200.352V37.525H213.127V32.025H197.002ZM197.052 38.8V41.05H213.777V38.8H197.052ZM197.227 18.475V20.7H209.802V21.85H197.252V25.825H200.552V23.925H213.077V18.475H197.227ZM197.252 25.125V27.375H213.502V25.125H197.252ZM230.232 21.725V24.325C230.232 28.25 228.357 32.525 224.482 34.25L226.357 36.875C230.707 34.9 232.882 29.675 232.882 24.325V21.725H230.232ZM230.982 21.725V24.325C230.982 29.475 233.132 34.4 237.532 36.3L239.332 33.675C235.457 32.075 233.607 28.075 233.607 24.325V21.725H230.982ZM225.407 20.3V23.025H238.382V20.3H225.407ZM240.532 18.075V41.225H243.882V18.075H240.532ZM260.205 23.675V26.375H264.605V23.675H260.205ZM263.705 18.075V31.825H267.03V18.075H263.705ZM259.18 32.325C254.28 32.325 251.255 34 251.255 36.8C251.255 39.625 254.28 41.25 259.18 41.25C264.08 41.25 267.105 39.625 267.105 36.8C267.105 34 264.08 32.325 259.18 32.325ZM259.18 34.85C262.205 34.85 263.805 35.475 263.805 36.8C263.805 38.1 262.205 38.725 259.18 38.725C256.18 38.725 254.58 38.1 254.58 36.8C254.58 35.475 256.18 34.85 259.18 34.85ZM253.005 20.4V21.85C253.005 24.825 251.355 27.9 247.53 29.2L249.23 31.825C253.655 30.325 255.705 26.275 255.705 21.85V20.4H253.005ZM253.705 20.4V21.85C253.705 25.975 255.68 29.825 259.98 31.25L261.605 28.625C257.955 27.4 256.38 24.575 256.38 21.85V20.4H253.705ZM248.43 19.475V22.125H260.88V19.475H248.43ZM270.628 21.55V24.2H281.703V21.55H270.628ZM276.203 25.225C273.278 25.225 271.128 27.5 271.128 30.75C271.128 33.975 273.278 36.25 276.203 36.25C279.153 36.25 281.278 33.975 281.278 30.75C281.278 27.5 279.153 25.225 276.203 25.225ZM276.203 28C277.453 28 278.353 29 278.353 30.75C278.353 32.5 277.453 33.475 276.203 33.475C274.953 33.475 274.078 32.5 274.078 30.75C274.078 29 274.953 28 276.203 28ZM287.378 18.075V41.225H290.553V18.075H287.378ZM284.603 27.475V30.15H288.428V27.475H284.603ZM282.528 18.5V40.25H285.628V18.5H282.528ZM274.578 18.7V23.225H277.853V18.7H274.578ZM302.226 20.65V21.325C302.226 23.7 299.776 26.3 294.676 26.925L295.901 29.525C301.776 28.725 305.101 25.4 305.101 21.325V20.65H302.226ZM303.176 20.65V21.325C303.176 25.4 306.501 28.725 312.401 29.525L313.601 26.925C308.501 26.3 306.051 23.7 306.051 21.325V20.65H303.176ZM302.401 32.75V41.25H305.701V32.75H302.401ZM293.676 30.85V33.5H314.601V30.85H293.676ZM295.526 19.25V21.875H312.701V19.25H295.526ZM325.774 25.85V28.55H329.599V25.85H325.774ZM320.824 20.075V23.975C320.824 27.9 319.624 32.025 316.224 34.125L318.224 36.625C321.924 34.35 323.374 29.225 323.374 23.975V20.075H320.824ZM321.549 20.075V23.825C321.549 28.825 322.699 33.825 326.374 36.1L328.174 33.5C325.024 31.45 324.049 27.6 324.049 23.825V20.075H321.549ZM333.374 18.075V41.225H336.549V18.075H333.374ZM328.674 18.425V40.175H331.774V18.425H328.674ZM344.272 29.825V36.325H347.572V29.825H344.272ZM352.672 29.825V36.325H355.997V29.825H352.672ZM339.672 35.85V38.55H360.622V35.85H339.672ZM350.122 19.2C345.122 19.2 341.472 21.65 341.472 25.425C341.472 29.2 345.122 31.625 350.122 31.625C355.097 31.625 358.772 29.2 358.772 25.425C358.772 21.65 355.097 19.2 350.122 19.2ZM350.122 21.8C353.347 21.8 355.497 23.125 355.497 25.425C355.497 27.7 353.347 29.05 350.122 29.05C346.897 29.05 344.747 27.7 344.747 25.425C344.747 23.125 346.897 21.8 350.122 21.8ZM365.696 39.35C366.996 39.35 367.996 38.325 367.996 36.95C367.996 35.575 366.996 34.575 365.696 34.575C364.371 34.575 363.421 35.575 363.421 36.95C363.421 38.325 364.371 39.35 365.696 39.35Z" fill="black"/>
<path d="M50.0449 92H57.2809V90.632H54.6169V78.806H53.3569C52.6549 79.238 51.8089 79.544 50.6209 79.742V80.804H52.9789V90.632H50.0449V92ZM65.1953 86.834C66.0593 86.834 66.9593 86.294 67.6973 85.052L66.7793 84.386C66.3293 85.25 65.8253 85.61 65.2313 85.61C64.0973 85.61 63.2513 83.9 61.6673 83.9C60.8033 83.9 59.8853 84.44 59.1653 85.718L60.0833 86.366C60.5513 85.502 61.0553 85.142 61.6313 85.142C62.7653 85.142 63.6293 86.834 65.1953 86.834ZM69.2217 92H77.5017V90.596H73.8477C73.1817 90.596 72.3897 90.65 71.6877 90.722C74.8017 87.788 76.8717 85.106 76.8717 82.46C76.8717 80.102 75.3957 78.572 73.0377 78.572C71.3637 78.572 70.2117 79.346 69.1317 80.516L70.0857 81.434C70.8237 80.57 71.7597 79.904 72.8397 79.904C74.4777 79.904 75.2517 81.02 75.2517 82.532C75.2517 84.782 73.3617 87.428 69.2217 91.046V92ZM83.4181 92.252C85.9021 92.252 87.5041 89.966 87.5041 85.358C87.5041 80.786 85.9021 78.572 83.4181 78.572C80.8981 78.572 79.2961 80.786 79.2961 85.358C79.2961 89.966 80.8981 92.252 83.4181 92.252ZM83.4181 90.92C81.9061 90.92 80.8801 89.246 80.8801 85.358C80.8801 81.524 81.9061 79.886 83.4181 79.886C84.9121 79.886 85.9201 81.524 85.9201 85.358C85.9201 89.246 84.9121 90.92 83.4181 90.92ZM93.4024 92.252C95.8864 92.252 97.4884 89.966 97.4884 85.358C97.4884 80.786 95.8864 78.572 93.4024 78.572C90.8824 78.572 89.2804 80.786 89.2804 85.358C89.2804 89.966 90.8824 92.252 93.4024 92.252ZM93.4024 90.92C91.8904 90.92 90.8644 89.246 90.8644 85.358C90.8644 81.524 91.8904 79.886 93.4024 79.886C94.8964 79.886 95.9044 81.524 95.9044 85.358C95.9044 89.246 94.8964 90.92 93.4024 90.92ZM111.631 77.132V93.404H113.071V77.132H111.631ZM109.003 83.666V84.89H112.117V83.666H109.003ZM104.791 79.22V79.508C104.791 83.27 103.351 86.564 99.2648 88.85L100.147 89.912C104.791 87.302 106.231 83.414 106.231 79.22H104.791ZM99.8948 79.22V80.462H105.295V79.22H99.8948ZM108.013 77.564V92.612H109.435V77.564H108.013ZM131.675 77.114V93.422H133.169V77.114H131.675ZM124.583 78.374C122.189 78.374 120.461 80.588 120.461 84.044C120.461 87.518 122.189 89.732 124.583 89.732C126.995 89.732 128.723 87.518 128.723 84.044C128.723 80.588 126.995 78.374 124.583 78.374ZM124.583 79.724C126.185 79.724 127.283 81.416 127.283 84.044C127.283 86.69 126.185 88.418 124.583 88.418C122.999 88.418 121.883 86.69 121.883 84.044C121.883 81.416 122.999 79.724 124.583 79.724ZM148.773 77.132V93.404H150.213V77.132H148.773ZM146.037 83.756V84.98H149.169V83.756H146.037ZM145.083 77.492V92.576H146.487V77.492H145.083ZM137.199 79.094V88.49H138.693V79.094H137.199ZM137.199 87.896V89.192H138.243C139.989 89.192 141.861 89.102 144.075 88.67L143.913 87.374C141.789 87.788 139.917 87.896 138.243 87.896H137.199ZM158.258 78.302C155.72 78.302 153.884 79.868 153.884 82.136C153.884 84.422 155.72 85.988 158.258 85.988C160.796 85.988 162.614 84.422 162.614 82.136C162.614 79.868 160.796 78.302 158.258 78.302ZM158.258 79.598C159.932 79.598 161.156 80.624 161.156 82.136C161.156 83.648 159.932 84.692 158.258 84.692C156.566 84.692 155.342 83.648 155.342 82.136C155.342 80.624 156.566 79.598 158.258 79.598ZM164.738 77.114V93.422H166.232V77.114H164.738ZM153.272 89.858C156.17 89.858 160.148 89.84 163.802 89.138L163.676 88.04C160.13 88.598 156.026 88.616 153.056 88.616L153.272 89.858ZM174.36 78.05V85.664H181.704V78.05H180.246V80.624H175.836V78.05H174.36ZM175.836 81.812H180.246V84.458H175.836V81.812ZM181.29 81.236V82.478H185.898V81.236H181.29ZM185.448 77.132V86.564H186.942V77.132H185.448ZM176.394 87.392V93.188H186.942V87.392H176.394ZM185.484 88.58V91.982H177.852V88.58H185.484ZM195.437 77.888C193.025 77.888 191.297 79.238 191.297 81.236C191.297 83.216 193.025 84.602 195.437 84.602C197.867 84.602 199.595 83.216 199.595 81.236C199.595 79.238 197.867 77.888 195.437 77.888ZM195.437 79.13C197.021 79.13 198.155 79.994 198.155 81.236C198.155 82.496 197.021 83.342 195.437 83.342C193.853 83.342 192.719 82.496 192.719 81.236C192.719 79.994 193.853 79.13 195.437 79.13ZM194.771 86.402V92.9H196.265V86.402H194.771ZM201.971 77.132V93.422H203.447V77.132H201.971ZM190.289 87.212C193.259 87.212 197.255 87.158 200.927 86.492L200.819 85.376C197.237 85.916 193.115 85.952 190.091 85.952L190.289 87.212ZM206.667 84.692V85.826H221.427V84.692H206.667ZM208.413 87.14V88.202H218.115V89.588H208.467V92.522H209.943V90.614H219.573V87.14H208.413ZM208.467 92.126V93.206H220.095V92.126H208.467ZM208.539 77.6V78.662H218.061V79.976H208.575V82.748H210.051V80.984H219.519V77.6H208.539ZM208.575 82.388V83.468H219.825V82.388H208.575ZM239.095 77.132V85.862H240.607V77.132H239.095ZM230.113 86.672V93.188H240.607V86.672H239.131V88.652H231.589V86.672H230.113ZM231.589 89.84H239.131V91.982H231.589V89.84ZM231.877 77.906C229.411 77.906 227.629 79.436 227.629 81.65C227.629 83.882 229.411 85.412 231.877 85.412C234.343 85.412 236.107 83.882 236.107 81.65C236.107 79.436 234.343 77.906 231.877 77.906ZM231.877 79.148C233.497 79.148 234.667 80.174 234.667 81.65C234.667 83.126 233.497 84.152 231.877 84.152C230.257 84.152 229.087 83.126 229.087 81.65C229.087 80.174 230.257 79.148 231.877 79.148ZM244.494 85.196V86.42H245.664C248.922 86.42 250.542 86.366 252.558 86.006L252.396 84.8C250.452 85.142 248.868 85.196 245.664 85.196H244.494ZM244.458 78.104V79.328H250.002V81.56H244.494V85.934H245.97V82.73H251.478V78.104H244.458ZM255.708 77.15V87.14H257.202V77.15H255.708ZM252.558 79.544V80.768H256.05V79.544H252.558ZM252.558 82.91V84.134H256.05V82.91H252.558ZM246.312 88.022V89.246H255.708V93.44H257.202V88.022H246.312ZM260.35 79.904V81.128H268.414V79.904H260.35ZM264.382 82.208C262.366 82.208 260.89 83.738 260.89 85.934C260.89 88.112 262.366 89.642 264.382 89.642C266.416 89.642 267.892 88.112 267.892 85.934C267.892 83.738 266.416 82.208 264.382 82.208ZM264.382 83.486C265.642 83.486 266.56 84.494 266.56 85.934C266.56 87.374 265.642 88.382 264.382 88.382C263.14 88.382 262.24 87.374 262.24 85.934C262.24 84.494 263.14 83.486 264.382 83.486ZM272.716 77.132V93.404H274.156V77.132H272.716ZM270.124 83.972V85.214H273.202V83.972H270.124ZM269.242 77.492V92.612H270.646V77.492H269.242ZM263.662 77.6V80.66H265.138V77.6H263.662ZM283.461 78.734V79.418C283.461 81.56 280.671 83.432 277.809 83.846L278.385 85.034C281.661 84.476 284.757 82.334 284.757 79.418V78.734H283.461ZM283.839 78.734V79.418C283.839 82.334 286.917 84.476 290.211 85.034L290.769 83.846C287.925 83.432 285.117 81.56 285.117 79.418V78.734H283.839ZM283.515 87.194V93.404H284.991V87.194H283.515ZM276.945 86.402V87.626H291.651V86.402H276.945ZM278.313 78.14V79.346H290.229V78.14H278.313ZM299.912 82.946V84.188H303.026V82.946H299.912ZM296.87 78.662V81.758C296.87 84.548 295.538 87.464 293.306 88.778L294.242 89.912C296.618 88.454 298.04 85.16 298.04 81.758V78.662H296.87ZM297.158 78.662V81.704C297.158 84.872 298.472 88.112 300.812 89.552L301.676 88.382C299.534 87.086 298.31 84.314 298.31 81.704V78.662H297.158ZM305.888 77.132V93.404H307.328V77.132H305.888ZM302.594 77.474V92.594H303.998V77.474H302.594ZM313.662 85.502V90.38H315.138V85.502H313.662ZM319.674 85.502V90.38H321.168V85.502H319.674ZM310.062 90.092V91.334H324.804V90.092H310.062ZM317.406 78.158C313.95 78.158 311.484 79.796 311.484 82.352C311.484 84.89 313.95 86.528 317.406 86.528C320.844 86.528 323.31 84.89 323.31 82.352C323.31 79.796 320.844 78.158 317.406 78.158ZM317.406 79.346C320.016 79.346 321.87 80.534 321.87 82.352C321.87 84.152 320.016 85.34 317.406 85.34C314.796 85.34 312.924 84.152 312.924 82.352C312.924 80.534 314.796 79.346 317.406 79.346ZM328.061 88.022H329.177L329.411 80.408L329.447 78.518H327.791L327.827 80.408L328.061 88.022ZM328.601 92.252C329.267 92.252 329.807 91.73 329.807 90.992C329.807 90.236 329.267 89.732 328.601 89.732C327.953 89.732 327.431 90.236 327.431 90.992C327.431 91.73 327.953 92.252 328.601 92.252Z" fill="#999999"/>
<path d="M2.07832 120H3.75232V114.078H8.77432V112.692H3.75232V108.21H9.67432V106.806H2.07832V120ZM12.01 120H13.684V106.806H12.01V120ZM22.4674 120.252C24.2494 120.252 25.6894 119.604 26.5534 118.722V113.178H22.2154V114.564H25.0054V118.02C24.5014 118.488 23.5834 118.776 22.6294 118.776C19.8034 118.776 18.2374 116.706 18.2374 113.376C18.2374 110.082 19.9474 108.03 22.6114 108.03C23.9434 108.03 24.7894 108.588 25.4554 109.272L26.3734 108.192C25.5994 107.4 24.3934 106.572 22.5754 106.572C19.0834 106.572 16.5274 109.164 16.5274 113.412C16.5274 117.696 19.0114 120.252 22.4674 120.252ZM29.6936 120H31.2056V112.71C31.2056 111.558 31.0796 109.974 30.9896 108.804H31.0616L32.1056 111.81L34.6076 118.686H35.7236L38.2256 111.81L39.2696 108.804H39.3596C39.2696 109.974 39.1436 111.558 39.1436 112.71V120H40.6916V106.806H38.6756L36.1736 113.88C35.8676 114.78 35.5796 115.698 35.2556 116.634H35.1836C34.8596 115.698 34.5536 114.78 34.2296 113.88L31.6916 106.806H29.6936V120ZM42.555 120H44.247L46.569 112.62C47.055 111.144 47.469 109.704 47.901 108.174H47.973C48.405 109.704 48.819 111.144 49.287 112.62L51.609 120H53.355L48.891 106.806H47.019L42.555 120ZM44.895 115.968H50.979V114.654H44.895V115.968ZM58.3595 113.448V114.672H73.1015V113.448H58.3595ZM65.0915 114.204V117.948H66.5855V114.204H65.0915ZM60.2495 105.888V111.612H71.1935V105.888H60.2495ZM69.7175 107.094V110.406H61.7075V107.094H69.7175ZM60.2315 119.82V121.044H71.4635V119.82H60.2315ZM60.2315 116.382V120.252H61.7075V116.382H60.2315ZM87.3021 105.132V121.404H88.7421V105.132H87.3021ZM81.3801 110.964V112.206H84.4941V110.964H81.3801ZM84.0441 105.51V120.576H85.4481V105.51H84.0441ZM78.2481 107.652V109.722C78.2481 112.71 76.9881 115.68 74.7201 117.048L75.6381 118.164C78.0321 116.652 79.4001 113.286 79.4001 109.722V107.652H78.2481ZM78.5541 107.652V109.722C78.5541 113.124 79.8681 116.328 82.2441 117.768L83.1621 116.67C80.9301 115.374 79.7061 112.548 79.7061 109.722V107.652H78.5541ZM75.1701 107.022V108.264H82.6041V107.022H75.1701ZM96.5216 113.682V114.906H111.228V113.682H96.5216ZM98.4296 119.82V121.044H109.608V119.82H98.4296ZM98.4296 116.328V120.198H99.9236V116.328H98.4296ZM103.884 105.672C100.392 105.672 98.1596 106.896 98.1596 108.93C98.1596 110.946 100.392 112.17 103.884 112.17C107.358 112.17 109.608 110.946 109.608 108.93C109.608 106.896 107.358 105.672 103.884 105.672ZM103.884 106.896C106.44 106.896 108.078 107.652 108.078 108.93C108.078 110.208 106.44 110.964 103.884 110.964C101.328 110.964 99.6896 110.208 99.6896 108.93C99.6896 107.652 101.328 106.896 103.884 106.896ZM125.374 105.132V115.428H126.796V105.132H125.374ZM122.728 109.542V110.784H125.806V109.542H122.728ZM121.9 105.456V114.852H123.304V105.456H121.9ZM113.008 107.076V108.264H121.252V107.076H113.008ZM117.148 109.092C115.096 109.092 113.674 110.208 113.674 111.882C113.674 113.574 115.096 114.672 117.148 114.672C119.182 114.672 120.604 113.574 120.604 111.882C120.604 110.208 119.182 109.092 117.148 109.092ZM117.148 110.208C118.408 110.208 119.272 110.874 119.272 111.882C119.272 112.908 118.408 113.556 117.148 113.556C115.87 113.556 115.006 112.908 115.006 111.882C115.006 110.874 115.87 110.208 117.148 110.208ZM116.41 105.258V107.742H117.868V105.258H116.41ZM121.468 115.716C118.048 115.716 116.032 116.724 116.032 118.542C116.032 120.342 118.048 121.368 121.468 121.368C124.852 121.368 126.886 120.342 126.886 118.542C126.886 116.724 124.852 115.716 121.468 115.716ZM121.468 116.868C123.934 116.868 125.41 117.462 125.41 118.542C125.41 119.622 123.934 120.234 121.468 120.234C118.966 120.234 117.508 119.622 117.508 118.542C117.508 117.462 118.966 116.868 121.468 116.868ZM136.245 111.45V112.692H139.323V111.45H136.245ZM142.041 105.132V121.404H143.481V105.132H142.041ZM138.819 105.474V120.594H140.241V105.474H138.819ZM133.311 106.482C131.205 106.482 129.855 108.66 129.855 112.152C129.855 115.644 131.205 117.822 133.311 117.822C135.417 117.822 136.785 115.644 136.785 112.152C136.785 108.66 135.417 106.482 133.311 106.482ZM133.311 107.868C134.607 107.868 135.417 109.524 135.417 112.152C135.417 114.78 134.607 116.436 133.311 116.436C132.033 116.436 131.223 114.78 131.223 112.152C131.223 109.524 132.033 107.868 133.311 107.868ZM154.333 110.64V111.864H158.869V110.64H154.333ZM150.409 106.536V109.434C150.409 112.458 148.573 115.59 146.179 116.778L147.133 117.966C149.707 116.58 151.633 113.088 151.633 109.434V106.536H150.409ZM150.697 106.536V109.434C150.697 112.998 152.587 116.346 155.215 117.678L156.097 116.472C153.739 115.356 151.903 112.404 151.903 109.434V106.536H150.697ZM158.131 105.114V121.422H159.607V105.114H158.131ZM180.095 105.132V117.246H181.517V105.132H180.095ZM177.485 109.992V111.234H180.545V109.992H177.485ZM176.513 105.438V116.796H177.917V105.438H176.513ZM170.915 119.82V121.044H182.021V119.82H170.915ZM170.915 116.148V120.252H172.409V116.148H170.915ZM168.557 113.61V114.834H169.601C171.959 114.834 173.669 114.744 175.721 114.348L175.577 113.142C173.579 113.538 171.887 113.61 169.601 113.61H168.557ZM168.521 106.536V107.742H173.201V110.046H168.557V114.258H169.997V111.18H174.641V106.536H168.521ZM185.26 112.53V113.754H186.466C189.67 113.754 191.542 113.646 193.72 113.214L193.558 112.008C191.434 112.44 189.598 112.53 186.466 112.53H185.26ZM185.26 106.176V112.98H186.718V107.382H192.658V106.176H185.26ZM196.258 105.132V114.564H197.752V105.132H196.258ZM191.704 109.092V110.316H196.672V109.092H191.704ZM187.204 115.374V121.17H197.752V115.374H187.204ZM196.294 116.562V119.964H188.662V116.562H196.294ZM208.28 106.158C204.896 106.158 202.358 107.958 202.358 110.658C202.358 113.376 204.896 115.158 208.28 115.158C211.664 115.158 214.184 113.376 214.184 110.658C214.184 107.958 211.664 106.158 208.28 106.158ZM208.28 107.382C210.854 107.382 212.762 108.696 212.762 110.658C212.762 112.602 210.854 113.934 208.28 113.934C205.706 113.934 203.798 112.602 203.798 110.658C203.798 108.696 205.706 107.382 208.28 107.382ZM200.936 118.002V119.262H215.678V118.002H200.936ZM217.495 118.164V119.406H232.237V118.164H217.495ZM224.083 114.672V118.686H225.577V114.672H224.083ZM219.277 106.338V107.544H228.943V110.064H219.331V114.528H220.807V111.27H230.419V106.338H219.277ZM219.331 113.898V115.122H230.797V113.898H219.331ZM239.08 113.448V114.672H253.822V113.448H239.08ZM245.812 114.204V117.948H247.306V114.204H245.812ZM240.97 105.888V111.612H251.914V105.888H240.97ZM250.438 107.094V110.406H242.428V107.094H250.438ZM240.952 119.82V121.044H252.184V119.82H240.952ZM240.952 116.382V120.252H242.428V116.382H240.952ZM268.023 105.132V121.404H269.463V105.132H268.023ZM262.101 110.964V112.206H265.215V110.964H262.101ZM264.765 105.51V120.576H266.169V105.51H264.765ZM258.969 107.652V109.722C258.969 112.71 257.709 115.68 255.441 117.048L256.359 118.164C258.753 116.652 260.121 113.286 260.121 109.722V107.652H258.969ZM259.275 107.652V109.722C259.275 113.124 260.589 116.328 262.965 117.768L263.883 116.67C261.651 115.374 260.427 112.548 260.427 109.722V107.652H259.275ZM255.891 107.022V108.264H263.325V107.022H255.891ZM283.213 105.114V121.404H284.725V105.114H283.213ZM284.311 111.72V112.962H287.317V111.72H284.311ZM279.055 106.878V107.112C279.055 111.414 276.805 114.888 272.305 117.174L273.133 118.326C278.389 115.68 280.513 111.504 280.513 106.878H279.055ZM273.061 106.878V108.102H279.829V106.878H273.061ZM302.153 108.966V110.208H306.257V108.966H302.153ZM297.887 106.122V108.12C297.887 110.604 296.249 112.908 293.837 113.808L294.611 114.996C297.329 113.898 299.093 111.27 299.093 108.12V106.122H297.887ZM298.175 106.122V108.174C298.175 111.072 299.921 113.592 302.513 114.6L303.323 113.448C300.965 112.584 299.381 110.442 299.381 108.174V106.122H298.175ZM305.699 105.15V117.318H307.193V105.15H305.699ZM296.735 119.82V121.044H307.589V119.82H296.735ZM296.735 115.968V120.396H298.229V115.968H296.735ZM319.054 109.344V110.586H322.726V109.344H319.054ZM322.258 105.132V114.834H323.752V105.132H322.258ZM318.406 115.32C315.04 115.32 312.97 116.454 312.97 118.362C312.97 120.288 315.04 121.386 318.406 121.386C321.754 121.386 323.824 120.288 323.824 118.362C323.824 116.454 321.754 115.32 318.406 115.32ZM318.406 116.49C320.854 116.49 322.348 117.174 322.348 118.362C322.348 119.532 320.854 120.216 318.406 120.216C315.958 120.216 314.464 119.532 314.464 118.362C314.464 117.174 315.958 116.49 318.406 116.49ZM314.518 106.77V108.084C314.518 110.424 312.844 112.602 310.432 113.484L311.206 114.672C313.906 113.664 315.742 111.09 315.742 108.084V106.77H314.518ZM314.806 106.77V108.084C314.806 110.82 316.552 113.268 319.198 114.222L319.954 113.034C317.596 112.206 316.012 110.19 316.012 108.084V106.77H314.806ZM310.882 106.32V107.544H319.576V106.32H310.882ZM331.562 110.64V113.34H333.074V110.64H331.562ZM338.78 105.132V114.51H340.274V105.132H338.78ZM327.206 114.114C330.104 114.114 334.01 114.06 337.556 113.43L337.448 112.368C334.01 112.872 329.96 112.908 326.99 112.908L327.206 114.114ZM328.448 109.884V111.09H336.26V109.884H328.448ZM328.448 105.942V110.352H329.942V107.166H336.116V105.942H328.448ZM329.6 115.23V121.188H340.274V115.23H338.798V116.94H331.094V115.23H329.6ZM331.094 118.11H338.798V119.982H331.094V118.11ZM355.321 105.132V121.404H356.815V105.132H355.321ZM344.521 106.716V116.796H345.997V106.716H344.521ZM344.521 115.914V117.21H345.853C348.427 117.21 351.001 117.012 353.827 116.436L353.647 115.158C350.893 115.734 348.319 115.914 345.853 115.914H344.521ZM371.051 105.114V121.422H372.563V105.114H371.051ZM372.203 111.54V112.8H375.227V111.54H372.203ZM360.737 116.112V117.372H362.015C365.075 117.372 367.217 117.282 369.719 116.814L369.557 115.554C367.127 116.004 365.021 116.112 362.015 116.112H360.737ZM360.737 106.698V116.67H362.213V107.922H368.297V106.698H360.737ZM378.196 120.252C378.862 120.252 379.402 119.73 379.402 118.992C379.402 118.236 378.862 117.732 378.196 117.732C377.548 117.732 377.026 118.236 377.026 118.992C377.026 119.73 377.548 120.252 378.196 120.252Z" fill="#999999"/>
</svg>
