<svg width="438" height="28" viewBox="0 0 438 28" fill="none" xmlns="http://www.w3.org/2000/svg">
<path d="M7.02412 22.35C11.2741 22.35 13.7991 19.775 13.7991 16.75C13.7991 14.1 12.3241 12.65 10.0991 11.725L7.67412 10.725C6.09912 10.1 4.77412 9.6 4.77412 8.275C4.77412 7.075 5.79912 6.35 7.42412 6.35C8.94912 6.35 10.1741 6.9 11.3741 7.875L13.2241 5.55C11.7241 4.025 9.57412 3.175 7.42412 3.175C3.69912 3.175 1.02412 5.5 1.02412 8.525C1.02412 11.2 2.92412 12.725 4.77412 13.475L7.24912 14.525C8.89912 15.225 10.0241 15.675 10.0241 17.05C10.0241 18.325 9.02412 19.15 7.09912 19.15C5.47412 19.15 3.69912 18.35 2.39912 17.125L0.274121 19.675C2.07412 21.4 4.52412 22.35 7.02412 22.35ZM20.9964 22.35C22.2464 22.35 23.2214 22.075 23.9714 21.825L23.3714 19.15C22.9714 19.3 22.4464 19.475 21.9714 19.475C20.7464 19.475 20.0714 18.725 20.0714 17.125V10.9H23.5464V8.025H20.0714V4.225H17.0214L16.6214 8.025L14.4464 8.175V10.9H16.3964V17.125C16.3964 20.25 17.6714 22.35 20.9964 22.35ZM31.9085 22.35C33.6335 22.35 35.3835 21.775 36.7585 20.825L35.5335 18.55C34.5085 19.175 33.5085 19.525 32.3835 19.525C30.3085 19.525 28.8085 18.35 28.4835 16.05H37.1335C37.2085 15.7 37.2835 15.05 37.2835 14.35C37.2835 10.475 35.3085 7.675 31.4335 7.675C28.1335 7.675 24.9335 10.475 24.9335 15.025C24.9335 19.65 27.9835 22.35 31.9085 22.35ZM28.4335 13.6C28.7335 11.55 30.0335 10.5 31.5085 10.5C33.3085 10.5 34.1585 11.7 34.1585 13.6H28.4335ZM40.3349 27.375H44.0099V23.125L43.8849 20.85C44.9349 21.825 46.1349 22.35 47.3349 22.35C50.4099 22.35 53.2849 19.6 53.2849 14.8C53.2849 10.475 51.2349 7.675 47.7849 7.675C46.2849 7.675 44.8349 8.45 43.6849 9.475H43.6099L43.3099 8.025H40.3349V27.375ZM46.5349 19.325C45.7849 19.325 44.8849 19.075 44.0099 18.3V12.125C44.9599 11.15 45.8099 10.675 46.7349 10.675C48.6849 10.675 49.5099 12.15 49.5099 14.85C49.5099 17.875 48.2099 19.325 46.5349 19.325ZM62.1378 22H73.2878V19.025H69.8128V3.975H67.0878C65.8878 4.7 64.6378 5.175 62.7628 5.55V7.825H66.1378V19.025H62.1378V22ZM78.9089 22.35C80.2089 22.35 81.2089 21.325 81.2089 19.95C81.2089 18.575 80.2089 17.575 78.9089 17.575C77.5839 17.575 76.6339 18.575 76.6339 19.95C76.6339 21.325 77.5839 22.35 78.9089 22.35ZM98.1028 2.4V3.975C98.1028 7.525 95.2778 10.475 89.7528 11.975L91.0528 14.55C97.8278 12.7 101.578 8.5 101.578 2.4H98.1028ZM91.0278 2.4V5.025H100.403V2.4H91.0278ZM105.703 1.075V14.025H109.028V1.075H105.703ZM101.703 6.55V9.25H106.178V6.55H101.703ZM93.7778 14.95V23.975H109.028V14.95H93.7778ZM105.753 17.575V21.35H97.0528V17.575H105.753ZM116.826 2.4V5.05C116.826 7.675 115.551 10.55 112.326 11.975L114.076 14.55C117.851 12.925 119.426 9 119.426 5.05V2.4H116.826ZM117.426 2.4V5.05C117.426 8.9 118.951 12.45 122.551 13.925L124.301 11.4C121.251 10.125 120.026 7.625 120.026 5.05V2.4H117.426ZM129.226 1.1V15.125H132.376V1.1H129.226ZM126.451 6.7V9.4H130.126V6.7H126.451ZM124.326 1.45V15H127.426V1.45H124.326ZM116.476 16.125V18.775H129.076V24.225H132.376V16.125H116.476ZM150.549 1.05V13.55H153.874V1.05H150.549ZM152.549 6V8.7H156.949V6H152.549ZM138.574 14.475V16.875H150.599V18.1H138.624V22.45H141.924V20.35H153.874V14.475H138.574ZM138.624 21.625V24.075H154.549V21.625H138.624ZM135.649 2.775V5.275H149.274V2.775H135.649ZM142.474 5.825C139.024 5.825 136.774 7.3 136.774 9.625C136.774 11.95 139.024 13.375 142.474 13.375C145.899 13.375 148.149 11.95 148.149 9.625C148.149 7.3 145.899 5.825 142.474 5.825ZM142.474 8.15C144.024 8.15 144.974 8.65 144.974 9.625C144.974 10.55 144.024 11.05 142.474 11.05C140.924 11.05 139.974 10.55 139.974 9.625C139.974 8.65 140.924 8.15 142.474 8.15ZM140.799 0.899999V4.55H144.124V0.899999H140.799ZM165.654 12.5V15.15H186.604V12.5H165.654ZM174.729 14.175V19.05H178.079V14.175H174.729ZM168.229 2.05V10.65H183.954V2.05H168.229ZM180.679 4.65V8.05H171.479V4.65H180.679ZM168.079 21.175V23.825H184.304V21.175H168.079ZM168.079 17.1V22.05H171.379V17.1H168.079ZM205.377 1.075V24.225H208.527V1.075H205.377ZM197.752 8.975V11.675H201.577V8.975H197.752ZM200.702 1.45V23.175H203.802V1.45H200.702ZM192.752 4.85V7.225C192.752 11.175 191.577 15.325 188.177 17.45L190.152 19.9C193.827 17.6 195.252 12.425 195.252 7.225V4.85H192.752ZM193.502 4.85V7.225C193.502 12.325 194.852 17.175 198.527 19.35L200.477 16.925C197.127 14.975 195.977 11.075 195.977 7.225V4.85H193.502ZM189.052 3.4V6.075H199.377V3.4H189.052ZM219.1 2.6C215.475 2.6 212.7 4.975 212.7 8.3C212.7 11.65 215.475 14.025 219.1 14.025C222.75 14.025 225.475 11.65 225.475 8.3C225.475 4.975 222.75 2.6 219.1 2.6ZM219.1 5.45C220.875 5.45 222.225 6.5 222.225 8.3C222.225 10.125 220.875 11.175 219.1 11.175C217.325 11.175 215.975 10.125 215.975 8.3C215.975 6.5 217.325 5.45 219.1 5.45ZM227.65 1.05V24.275H230.975V1.05H227.65ZM212.15 19.575C216.15 19.575 221.6 19.525 226.625 18.525L226.375 16.125C221.5 16.85 215.825 16.9 211.75 16.9L212.15 19.575ZM246.38 15.7V24.225H249.78V15.7H246.38ZM254.38 15.7V24.225H257.78V15.7H254.38ZM241.655 13.95V16.625H262.63V13.95H241.655ZM252.08 1.85C247.155 1.85 243.73 3.875 243.73 7.05C243.73 10.175 247.155 12.2 252.08 12.2C257.03 12.2 260.455 10.175 260.455 7.05C260.455 3.875 257.03 1.85 252.08 1.85ZM252.08 4.5C255.13 4.5 257.03 5.4 257.03 7.05C257.03 8.675 255.13 9.575 252.08 9.575C249.055 9.575 247.13 8.675 247.13 7.05C247.13 5.4 249.055 4.5 252.08 4.5ZM277.728 6.15V8.8H281.978V6.15H277.728ZM277.678 10.775V13.425H281.903V10.775H277.678ZM264.728 3.15V5.775H277.428V3.15H264.728ZM271.228 6.575C268.053 6.575 265.803 8.325 265.803 10.9C265.803 13.475 268.053 15.225 271.228 15.225C274.403 15.225 276.653 13.475 276.653 10.9C276.653 8.325 274.403 6.575 271.228 6.575ZM271.228 9.05C272.603 9.05 273.578 9.675 273.578 10.9C273.578 12.125 272.603 12.75 271.228 12.75C269.828 12.75 268.903 12.125 268.903 10.9C268.903 9.675 269.828 9.05 271.228 9.05ZM269.578 0.874999V4.975H272.903V0.874999H269.578ZM280.703 1.075V15.825H284.028V1.075H280.703ZM276.203 16.1C271.303 16.1 268.278 17.625 268.278 20.175C268.278 22.725 271.303 24.225 276.203 24.225C281.078 24.225 284.128 22.725 284.128 20.175C284.128 17.625 281.078 16.1 276.203 16.1ZM276.203 18.65C279.053 18.65 280.603 19.1 280.603 20.175C280.603 21.225 279.053 21.725 276.203 21.725C273.353 21.725 271.778 21.225 271.778 20.175C271.778 19.1 273.353 18.65 276.203 18.65ZM298.126 1.4C292.826 1.4 289.751 2.8 289.751 5.35C289.751 7.9 292.826 9.3 298.126 9.3C303.401 9.3 306.501 7.9 306.501 5.35C306.501 2.8 303.401 1.4 298.126 1.4ZM298.126 3.825C301.476 3.825 303.051 4.325 303.051 5.35C303.051 6.425 301.476 6.875 298.126 6.875C294.776 6.875 293.201 6.425 293.201 5.35C293.201 4.325 294.776 3.825 298.126 3.825ZM287.651 10.375V13H308.576V10.375H287.651ZM290.051 14.3V16.775H302.776V17.95H290.076V22.3H293.351V20.25H306.051V14.3H290.051ZM290.076 21.575V24.075H306.651V21.575H290.076ZM329.481 6V8.675H334.856V6H329.481ZM322.956 2.5V5C322.956 8.275 321.356 11.475 317.531 12.75L319.281 15.35C323.656 13.75 325.631 9.725 325.631 5V2.5H322.956ZM323.681 2.5V5.025C323.681 9.4 325.581 13.275 329.731 14.775L331.506 12.225C327.856 10.975 326.331 8 326.331 5.025V2.5H323.681ZM333.706 1.1V18.175H337.031V1.1H333.706ZM321.706 21.175V23.825H337.531V21.175H321.706ZM321.706 16.45V22.65H325.056V16.45H321.706ZM341.429 11.625V14.325H343.029C346.479 14.325 348.729 14.25 351.379 13.8L351.079 11.15C348.529 11.575 346.379 11.625 343.029 11.625H341.429ZM341.429 2.625V13.1H344.629V5.275H350.554V2.625H341.429ZM343.679 7.15V9.65H350.304V7.15H343.679ZM357.229 1.075V15.2H360.379V1.075H357.229ZM354.454 6.75V9.4H358.129V6.75H354.454ZM352.279 1.5V15.05H355.379V1.5H352.279ZM344.479 16.2V18.85H357.079V24.225H360.379V16.2H344.479ZM378.502 1.075V24.225H381.802V1.075H378.502ZM381.052 10.1V12.875H385.152V10.1H381.052ZM363.552 4.5V7.15H377.027V4.5H363.552ZM370.327 8.45C366.952 8.45 364.452 10.75 364.452 13.975C364.452 17.2 366.952 19.5 370.327 19.5C373.702 19.5 376.202 17.2 376.202 13.975C376.202 10.75 373.702 8.45 370.327 8.45ZM370.327 11.15C371.902 11.15 373.027 12.2 373.027 13.975C373.027 15.75 371.902 16.8 370.327 16.8C368.752 16.8 367.627 15.75 367.627 13.975C367.627 12.2 368.752 11.15 370.327 11.15ZM368.652 1.45V5.5H371.977V1.45H368.652ZM395.775 8.85V11.55H399.6V8.85H395.775ZM390.825 3.075V6.975C390.825 10.9 389.625 15.025 386.225 17.125L388.225 19.625C391.925 17.35 393.375 12.225 393.375 6.975V3.075H390.825ZM391.55 3.075V6.825C391.55 11.825 392.7 16.825 396.375 19.1L398.175 16.5C395.025 14.45 394.05 10.6 394.05 6.825V3.075H391.55ZM403.375 1.075V24.225H406.55V1.075H403.375ZM398.675 1.425V23.175H401.775V1.425H398.675ZM414.273 12.825V19.325H417.573V12.825H414.273ZM422.673 12.825V19.325H425.998V12.825H422.673ZM409.673 18.85V21.55H430.623V18.85H409.673ZM420.123 2.2C415.123 2.2 411.473 4.65 411.473 8.425C411.473 12.2 415.123 14.625 420.123 14.625C425.098 14.625 428.773 12.2 428.773 8.425C428.773 4.65 425.098 2.2 420.123 2.2ZM420.123 4.8C423.348 4.8 425.498 6.125 425.498 8.425C425.498 10.7 423.348 12.05 420.123 12.05C416.898 12.05 414.748 10.7 414.748 8.425C414.748 6.125 416.898 4.8 420.123 4.8ZM435.696 22.35C436.996 22.35 437.996 21.325 437.996 19.95C437.996 18.575 436.996 17.575 435.696 17.575C434.371 17.575 433.421 18.575 433.421 19.95C433.421 21.325 434.371 22.35 435.696 22.35Z" fill="black"/>
</svg>
