<svg width="170" height="57" viewBox="0 0 170 57" fill="none" xmlns="http://www.w3.org/2000/svg">
<path d="M8.95439 36.238C11.8444 36.238 13.5614 34.487 13.5614 32.43C13.5614 30.628 12.5584 29.642 11.0454 29.013L9.39639 28.333C8.32539 27.908 7.42439 27.568 7.42439 26.667C7.42439 25.851 8.12139 25.358 9.22639 25.358C10.2634 25.358 11.0964 25.732 11.9124 26.395L13.1704 24.814C12.1504 23.777 10.6884 23.199 9.22639 23.199C6.69339 23.199 4.87439 24.78 4.87439 26.837C4.87439 28.656 6.16639 29.693 7.42439 30.203L9.10739 30.917C10.2294 31.393 10.9944 31.699 10.9944 32.634C10.9944 33.501 10.3144 34.062 9.00539 34.062C7.90039 34.062 6.69339 33.518 5.80939 32.685L4.36439 34.419C5.58839 35.592 7.25439 36.238 8.95439 36.238ZM20.8038 36.238C24.1358 36.238 26.4138 33.756 26.4138 29.659C26.4138 25.579 24.1358 23.199 20.8038 23.199C17.4548 23.199 15.1768 25.562 15.1768 29.659C15.1768 33.756 17.4548 36.238 20.8038 36.238ZM20.8038 34.062C18.9168 34.062 17.7438 32.345 17.7438 29.659C17.7438 26.973 18.9168 25.358 20.8038 25.358C22.6738 25.358 23.8638 26.973 23.8638 29.659C23.8638 32.345 22.6738 34.062 20.8038 34.062ZM33.7158 36.238C36.7928 36.238 38.5778 34.521 38.5778 30.356V23.42H36.1638V30.577C36.1638 33.178 35.1948 34.062 33.7158 34.062C32.2368 34.062 31.3188 33.178 31.3188 30.577V23.42H28.8198V30.356C28.8198 34.521 30.6388 36.238 33.7158 36.238ZM41.6046 36H49.2376V33.892H44.1206V23.42H41.6046V36ZM51.4327 36H53.6767V30.747C53.6767 29.557 53.4897 27.806 53.3537 26.616H53.4217L54.4417 29.574L56.3797 34.878H57.8247L59.7627 29.574L60.7997 26.616H60.8847C60.7487 27.806 60.5447 29.557 60.5447 30.747V36H62.8397V23.42H60.0517L57.9607 29.319C57.7057 30.101 57.4847 30.917 57.1957 31.733H57.1277C56.8557 30.917 56.6347 30.101 56.3457 29.319L54.2037 23.42H51.4327V36ZM64.3109 36H66.8609L68.6629 29.455C69.0369 28.146 69.3939 26.701 69.7339 25.341H69.8019C70.1589 26.684 70.5159 28.146 70.8899 29.455L72.6919 36H75.3269L71.2979 23.42H68.3399L64.3109 36ZM66.8099 32.77H72.7939V30.832H66.8099V32.77ZM77.921 36H80.437V25.511H83.99V23.42H74.368V25.511H77.921V36ZM86.047 36H93.952V33.892H88.563V30.543H92.966V28.418H88.563V25.511H93.765V23.42H86.047V36ZM99.7571 29.16V31.068H114.841V29.16H99.7571ZM106.291 30.366V33.876H108.703V30.366H106.291ZM101.611 21.636V27.828H112.933V21.636H101.611ZM110.575 23.508V25.956H103.951V23.508H110.575ZM101.503 35.406V37.314H113.185V35.406H101.503ZM101.503 32.472V36.036H103.879V32.472H101.503ZM128.358 20.934V37.602H130.626V20.934H128.358ZM122.868 26.622V28.566H125.622V26.622H122.868ZM124.992 21.204V36.846H127.224V21.204H124.992ZM119.268 23.652V25.362C119.268 28.206 118.422 31.194 115.974 32.724L117.396 34.488C120.042 32.832 121.068 29.106 121.068 25.362V23.652H119.268ZM119.808 23.652V25.362C119.808 29.034 120.78 32.526 123.426 34.092L124.83 32.346C122.418 30.942 121.59 28.134 121.59 25.362V23.652H119.808ZM116.604 22.608V24.534H124.038V22.608H116.604ZM136.952 29.43V31.338H152.018V29.43H136.952ZM138.77 35.406V37.314H150.326V35.406H138.77ZM138.77 32.454V36.018H141.164V32.454H138.77ZM144.494 21.42C140.858 21.42 138.464 22.734 138.464 24.858C138.464 26.982 140.858 28.296 144.494 28.296C148.112 28.296 150.524 26.982 150.524 24.858C150.524 22.734 148.112 21.42 144.494 21.42ZM144.494 23.328C146.744 23.328 148.058 23.85 148.058 24.858C148.058 25.884 146.744 26.388 144.494 26.388C142.244 26.388 140.93 25.884 140.93 24.858C140.93 23.85 142.244 23.328 144.494 23.328ZM165.445 20.934V31.374H167.713V20.934H165.445ZM163.411 25.038V26.982H166.075V25.038H163.411ZM161.989 21.258V30.834H164.221V21.258H161.989ZM153.439 22.644V24.48H161.521V22.644H153.439ZM157.507 25.02C155.419 25.02 153.907 26.208 153.907 27.936C153.907 29.664 155.419 30.834 157.507 30.834C159.595 30.834 161.107 29.664 161.107 27.936C161.107 26.208 159.595 25.02 157.507 25.02ZM157.507 26.73C158.371 26.73 158.965 27.162 158.965 27.936C158.965 28.71 158.371 29.142 157.507 29.142C156.625 29.142 156.031 28.71 156.031 27.936C156.031 27.162 156.625 26.73 157.507 26.73ZM156.301 21.096V23.904H158.659V21.096H156.301ZM162.079 31.554C158.497 31.554 156.337 32.634 156.337 34.578C156.337 36.504 158.497 37.602 162.079 37.602C165.643 37.602 167.803 36.504 167.803 34.578C167.803 32.634 165.643 31.554 162.079 31.554ZM162.079 33.336C164.293 33.336 165.409 33.714 165.409 34.578C165.409 35.424 164.293 35.82 162.079 35.82C159.847 35.82 158.731 35.424 158.731 34.578C158.731 33.714 159.847 33.336 162.079 33.336Z" fill="#16191F"/>
</svg>
