<svg width="170" height="58" viewBox="0 0 170 58" fill="none" xmlns="http://www.w3.org/2000/svg">
<path d="M0 57H170" stroke="#018133" stroke-width="2"/>
<path d="M22.3343 36H24.9983V30.6H29.7323V28.386H24.9983V24.894H30.5423V22.68H22.3343V36ZM32.8636 36H35.5276V22.68H32.8636V36ZM44.529 36.252C46.365 36.252 47.949 35.55 48.849 34.65V28.656H44.097V30.834H46.473V33.462C46.095 33.768 45.447 33.948 44.799 33.948C42.189 33.948 40.857 32.22 40.857 29.304C40.857 26.46 42.387 24.732 44.619 24.732C45.807 24.732 46.563 25.218 47.229 25.848L48.633 24.138C47.769 23.274 46.437 22.446 44.529 22.446C40.983 22.446 38.139 25.002 38.139 29.394C38.139 33.84 40.911 36.252 44.529 36.252ZM51.7073 36H54.0833V30.438C54.0833 29.178 53.8853 27.324 53.7413 26.064H53.8133L54.8933 29.196L56.9453 34.812H58.4753L60.5273 29.196L61.6253 26.064H61.7153C61.5713 27.324 61.3553 29.178 61.3553 30.438V36H63.7853V22.68H60.8333L58.6193 28.926C58.3493 29.754 58.1153 30.618 57.8093 31.482H57.7373C57.4493 30.618 57.2153 29.754 56.9093 28.926L54.6413 22.68H51.7073V36ZM65.343 36H68.043L69.951 29.07C70.347 27.684 70.725 26.154 71.085 24.714H71.157C71.535 26.136 71.913 27.684 72.309 29.07L74.217 36H77.007L72.741 22.68H69.609L65.343 36ZM67.989 32.58H74.325V30.528H67.989V32.58ZM81.7444 29.16V31.068H96.8284V29.16H81.7444ZM88.2784 30.366V33.876H90.6904V30.366H88.2784ZM83.5984 21.636V27.828H94.9204V21.636H83.5984ZM92.5624 23.508V25.956H85.9384V23.508H92.5624ZM83.4904 35.406V37.314H95.1724V35.406H83.4904ZM83.4904 32.472V36.036H85.8664V32.472H83.4904ZM110.345 20.934V37.602H112.613V20.934H110.345ZM104.855 26.622V28.566H107.609V26.622H104.855ZM106.979 21.204V36.846H109.211V21.204H106.979ZM101.255 23.652V25.362C101.255 28.206 100.409 31.194 97.961 32.724L99.383 34.488C102.029 32.832 103.055 29.106 103.055 25.362V23.652H101.255ZM101.795 23.652V25.362C101.795 29.034 102.767 32.526 105.413 34.092L106.817 32.346C104.405 30.942 103.577 28.134 103.577 25.362V23.652H101.795ZM98.591 22.608V24.534H106.025V22.608H98.591ZM119.907 29.43V31.338H134.973V29.43H119.907ZM121.725 35.406V37.314H133.281V35.406H121.725ZM121.725 32.454V36.018H124.119V32.454H121.725ZM127.449 21.42C123.813 21.42 121.419 22.734 121.419 24.858C121.419 26.982 123.813 28.296 127.449 28.296C131.067 28.296 133.479 26.982 133.479 24.858C133.479 22.734 131.067 21.42 127.449 21.42ZM127.449 23.328C129.699 23.328 131.013 23.85 131.013 24.858C131.013 25.884 129.699 26.388 127.449 26.388C125.199 26.388 123.885 25.884 123.885 24.858C123.885 23.85 125.199 23.328 127.449 23.328ZM148.399 20.934V31.374H150.667V20.934H148.399ZM146.365 25.038V26.982H149.029V25.038H146.365ZM144.943 21.258V30.834H147.175V21.258H144.943ZM136.393 22.644V24.48H144.475V22.644H136.393ZM140.461 25.02C138.373 25.02 136.861 26.208 136.861 27.936C136.861 29.664 138.373 30.834 140.461 30.834C142.549 30.834 144.061 29.664 144.061 27.936C144.061 26.208 142.549 25.02 140.461 25.02ZM140.461 26.73C141.325 26.73 141.919 27.162 141.919 27.936C141.919 28.71 141.325 29.142 140.461 29.142C139.579 29.142 138.985 28.71 138.985 27.936C138.985 27.162 139.579 26.73 140.461 26.73ZM139.255 21.096V23.904H141.613V21.096H139.255ZM145.033 31.554C141.451 31.554 139.291 32.634 139.291 34.578C139.291 36.504 141.451 37.602 145.033 37.602C148.597 37.602 150.757 36.504 150.757 34.578C150.757 32.634 148.597 31.554 145.033 31.554ZM145.033 33.336C147.247 33.336 148.363 33.714 148.363 34.578C148.363 35.424 147.247 35.82 145.033 35.82C142.801 35.82 141.685 35.424 141.685 34.578C141.685 33.714 142.801 33.336 145.033 33.336Z" fill="#018133"/>
</svg>
