<svg width="170" height="58" viewBox="0 0 170 58" fill="none" xmlns="http://www.w3.org/2000/svg">
<path d="M19.8343 36H22.4983V30.6H27.2323V28.386H22.4983V24.894H28.0423V22.68H19.8343V36ZM30.3636 36H33.0276V22.68H30.3636V36ZM42.029 36.252C43.865 36.252 45.449 35.55 46.349 34.65V28.656H41.597V30.834H43.973V33.462C43.595 33.768 42.947 33.948 42.299 33.948C39.689 33.948 38.357 32.22 38.357 29.304C38.357 26.46 39.887 24.732 42.119 24.732C43.307 24.732 44.063 25.218 44.729 25.848L46.133 24.138C45.269 23.274 43.937 22.446 42.029 22.446C38.483 22.446 35.639 25.002 35.639 29.394C35.639 33.84 38.411 36.252 42.029 36.252ZM49.2073 36H51.5833V30.438C51.5833 29.178 51.3853 27.324 51.2413 26.064H51.3133L52.3933 29.196L54.4453 34.812H55.9753L58.0273 29.196L59.1253 26.064H59.2153C59.0713 27.324 58.8553 29.178 58.8553 30.438V36H61.2853V22.68H58.3333L56.1193 28.926C55.8493 29.754 55.6153 30.618 55.3093 31.482H55.2373C54.9493 30.618 54.7153 29.754 54.4093 28.926L52.1413 22.68H49.2073V36ZM62.843 36H65.543L67.451 29.07C67.847 27.684 68.225 26.154 68.585 24.714H68.657C69.035 26.136 69.413 27.684 69.809 29.07L71.717 36H74.507L70.241 22.68H67.109L62.843 36ZM65.489 32.58H71.825V30.528H65.489V32.58ZM79.2444 29.16V31.068H94.3284V29.16H79.2444ZM85.7784 30.366V33.876H88.1904V30.366H85.7784ZM81.0984 21.636V27.828H92.4204V21.636H81.0984ZM90.0624 23.508V25.956H83.4384V23.508H90.0624ZM80.9904 35.406V37.314H92.6724V35.406H80.9904ZM80.9904 32.472V36.036H83.3664V32.472H80.9904ZM107.845 20.934V37.602H110.113V20.934H107.845ZM102.355 26.622V28.566H105.109V26.622H102.355ZM104.479 21.204V36.846H106.711V21.204H104.479ZM98.755 23.652V25.362C98.755 28.206 97.909 31.194 95.461 32.724L96.883 34.488C99.529 32.832 100.555 29.106 100.555 25.362V23.652H98.755ZM99.295 23.652V25.362C99.295 29.034 100.267 32.526 102.913 34.092L104.317 32.346C101.905 30.942 101.077 28.134 101.077 25.362V23.652H99.295ZM96.091 22.608V24.534H103.525V22.608H96.091ZM117.407 29.43V31.338H132.473V29.43H117.407ZM119.225 35.406V37.314H130.781V35.406H119.225ZM119.225 32.454V36.018H121.619V32.454H119.225ZM124.949 21.42C121.313 21.42 118.919 22.734 118.919 24.858C118.919 26.982 121.313 28.296 124.949 28.296C128.567 28.296 130.979 26.982 130.979 24.858C130.979 22.734 128.567 21.42 124.949 21.42ZM124.949 23.328C127.199 23.328 128.513 23.85 128.513 24.858C128.513 25.884 127.199 26.388 124.949 26.388C122.699 26.388 121.385 25.884 121.385 24.858C121.385 23.85 122.699 23.328 124.949 23.328ZM145.899 20.934V31.374H148.167V20.934H145.899ZM143.865 25.038V26.982H146.529V25.038H143.865ZM142.443 21.258V30.834H144.675V21.258H142.443ZM133.893 22.644V24.48H141.975V22.644H133.893ZM137.961 25.02C135.873 25.02 134.361 26.208 134.361 27.936C134.361 29.664 135.873 30.834 137.961 30.834C140.049 30.834 141.561 29.664 141.561 27.936C141.561 26.208 140.049 25.02 137.961 25.02ZM137.961 26.73C138.825 26.73 139.419 27.162 139.419 27.936C139.419 28.71 138.825 29.142 137.961 29.142C137.079 29.142 136.485 28.71 136.485 27.936C136.485 27.162 137.079 26.73 137.961 26.73ZM136.755 21.096V23.904H139.113V21.096H136.755ZM142.533 31.554C138.951 31.554 136.791 32.634 136.791 34.578C136.791 36.504 138.951 37.602 142.533 37.602C146.097 37.602 148.257 36.504 148.257 34.578C148.257 32.634 146.097 31.554 142.533 31.554ZM142.533 33.336C144.747 33.336 145.863 33.714 145.863 34.578C145.863 35.424 144.747 35.82 142.533 35.82C140.301 35.82 139.185 35.424 139.185 34.578C139.185 33.714 140.301 33.336 142.533 33.336Z" fill="#16191F"/>
<path d="M0 57H170" stroke="white" stroke-width="2"/>
</svg>
