<svg width="415" height="28" viewBox="0 0 415 28" fill="none" xmlns="http://www.w3.org/2000/svg">
<path d="M7.02314 22.35C11.2731 22.35 13.7981 19.775 13.7981 16.75C13.7981 14.1 12.3231 12.65 10.0981 11.725L7.67315 10.725C6.09814 10.1 4.77314 9.6 4.77314 8.275C4.77314 7.075 5.79814 6.35 7.42314 6.35C8.94815 6.35 10.1731 6.9 11.3731 7.875L13.2231 5.55C11.7231 4.025 9.57315 3.175 7.42314 3.175C3.69814 3.175 1.02314 5.5 1.02314 8.525C1.02314 11.2 2.92314 12.725 4.77314 13.475L7.24814 14.525C8.89815 15.225 10.0231 15.675 10.0231 17.05C10.0231 18.325 9.02315 19.15 7.09815 19.15C5.47314 19.15 3.69814 18.35 2.39814 17.125L0.273145 19.675C2.07314 21.4 4.52314 22.35 7.02314 22.35ZM20.9954 22.35C22.2454 22.35 23.2204 22.075 23.9704 21.825L23.3704 19.15C22.9704 19.3 22.4454 19.475 21.9704 19.475C20.7454 19.475 20.0704 18.725 20.0704 17.125V10.9H23.5454V8.025H20.0704V4.225H17.0204L16.6204 8.025L14.4454 8.175V10.9H16.3954V17.125C16.3954 20.25 17.6704 22.35 20.9954 22.35ZM31.9075 22.35C33.6325 22.35 35.3825 21.775 36.7575 20.825L35.5325 18.55C34.5075 19.175 33.5075 19.525 32.3825 19.525C30.3075 19.525 28.8075 18.35 28.4825 16.05H37.1325C37.2075 15.7 37.2825 15.05 37.2825 14.35C37.2825 10.475 35.3075 7.675 31.4325 7.675C28.1325 7.675 24.9325 10.475 24.9325 15.025C24.9325 19.65 27.9825 22.35 31.9075 22.35ZM28.4325 13.6C28.7325 11.55 30.0325 10.5 31.5075 10.5C33.3075 10.5 34.1575 11.7 34.1575 13.6H28.4325ZM40.3339 27.375H44.0089V23.125L43.8839 20.85C44.9339 21.825 46.1339 22.35 47.3339 22.35C50.4089 22.35 53.2839 19.6 53.2839 14.8C53.2839 10.475 51.2339 7.675 47.7839 7.675C46.2839 7.675 44.8339 8.45 43.6839 9.475H43.6089L43.3089 8.025H40.3339V27.375ZM46.5339 19.325C45.7839 19.325 44.8839 19.075 44.0089 18.3V12.125C44.9589 11.15 45.8089 10.675 46.7339 10.675C48.6839 10.675 49.5089 12.15 49.5089 14.85C49.5089 17.875 48.2089 19.325 46.5339 19.325ZM61.1618 22H73.5618V18.9H69.5118C68.6368 18.9 67.4118 19.025 66.4868 19.125C69.7868 15.675 72.7118 12.4 72.7118 9.275C72.7118 5.85 70.3618 3.65 66.8868 3.65C64.3618 3.65 62.6868 4.625 60.9868 6.45L63.0118 8.45C63.9618 7.45 65.0368 6.525 66.4118 6.525C68.1868 6.525 69.1618 7.625 69.1618 9.45C69.1618 12.15 65.9868 15.275 61.1618 19.9V22ZM78.9079 22.35C80.2079 22.35 81.2079 21.325 81.2079 19.95C81.2079 18.575 80.2079 17.575 78.9079 17.575C77.5829 17.575 76.6329 18.575 76.6329 19.95C76.6329 21.325 77.5829 22.35 78.9079 22.35ZM90.3269 2.975V14.15H101.352V2.975H90.3269ZM98.0769 5.6V11.525H93.6019V5.6H98.0769ZM104.552 1.075V17.95H107.877V1.075H104.552ZM106.927 7.75V10.475H110.952V7.75H106.927ZM92.9519 21.175V23.825H108.702V21.175H92.9519ZM92.9519 16.3V22.5H96.2769V16.3H92.9519ZM112.675 10.05V12.675H133.625V10.05H112.675ZM115.25 6.2V8.8H131.15V6.2H115.25ZM115.25 1.5V8.45H118.55V4.15H130.95V1.5H115.25ZM115.05 13.975V16.475H127.775V17.75H115.075V22.1H118.35V20.1H131.05V13.975H115.05ZM115.075 21.5V24.05H131.65V21.5H115.075ZM142.655 12.5V15.15H163.605V12.5H142.655ZM151.73 14.175V19.05H155.08V14.175H151.73ZM145.23 2.05V10.65H160.955V2.05H145.23ZM157.68 4.65V8.05H148.48V4.65H157.68ZM145.08 21.175V23.825H161.305V21.175H145.08ZM145.08 17.1V22.05H148.38V17.1H145.08ZM182.378 1.075V24.225H185.528V1.075H182.378ZM174.753 8.975V11.675H178.578V8.975H174.753ZM177.703 1.45V23.175H180.803V1.45H177.703ZM169.753 4.85V7.225C169.753 11.175 168.578 15.325 165.178 17.45L167.153 19.9C170.828 17.6 172.253 12.425 172.253 7.225V4.85H169.753ZM170.503 4.85V7.225C170.503 12.325 171.853 17.175 175.528 19.35L177.478 16.925C174.128 14.975 172.978 11.075 172.978 7.225V4.85H170.503ZM166.053 3.4V6.075H176.378V3.4H166.053ZM196.101 2.6C192.476 2.6 189.701 4.975 189.701 8.3C189.701 11.65 192.476 14.025 196.101 14.025C199.751 14.025 202.476 11.65 202.476 8.3C202.476 4.975 199.751 2.6 196.101 2.6ZM196.101 5.45C197.876 5.45 199.226 6.5 199.226 8.3C199.226 10.125 197.876 11.175 196.101 11.175C194.326 11.175 192.976 10.125 192.976 8.3C192.976 6.5 194.326 5.45 196.101 5.45ZM204.651 1.05V24.275H207.976V1.05H204.651ZM189.151 19.575C193.151 19.575 198.601 19.525 203.626 18.525L203.376 16.125C198.501 16.85 192.826 16.9 188.751 16.9L189.151 19.575ZM223.381 15.7V24.225H226.781V15.7H223.381ZM231.381 15.7V24.225H234.781V15.7H231.381ZM218.656 13.95V16.625H239.631V13.95H218.656ZM229.081 1.85C224.156 1.85 220.731 3.875 220.731 7.05C220.731 10.175 224.156 12.2 229.081 12.2C234.031 12.2 237.456 10.175 237.456 7.05C237.456 3.875 234.031 1.85 229.081 1.85ZM229.081 4.5C232.131 4.5 234.031 5.4 234.031 7.05C234.031 8.675 232.131 9.575 229.081 9.575C226.056 9.575 224.131 8.675 224.131 7.05C224.131 5.4 226.056 4.5 229.081 4.5ZM254.729 6.15V8.8H258.979V6.15H254.729ZM254.679 10.775V13.425H258.904V10.775H254.679ZM241.729 3.15V5.775H254.429V3.15H241.729ZM248.229 6.575C245.054 6.575 242.804 8.325 242.804 10.9C242.804 13.475 245.054 15.225 248.229 15.225C251.404 15.225 253.654 13.475 253.654 10.9C253.654 8.325 251.404 6.575 248.229 6.575ZM248.229 9.05C249.604 9.05 250.579 9.675 250.579 10.9C250.579 12.125 249.604 12.75 248.229 12.75C246.829 12.75 245.904 12.125 245.904 10.9C245.904 9.675 246.829 9.05 248.229 9.05ZM246.579 0.874999V4.975H249.904V0.874999H246.579ZM257.704 1.075V15.825H261.029V1.075H257.704ZM253.204 16.1C248.304 16.1 245.279 17.625 245.279 20.175C245.279 22.725 248.304 24.225 253.204 24.225C258.079 24.225 261.129 22.725 261.129 20.175C261.129 17.625 258.079 16.1 253.204 16.1ZM253.204 18.65C256.054 18.65 257.604 19.1 257.604 20.175C257.604 21.225 256.054 21.725 253.204 21.725C250.354 21.725 248.779 21.225 248.779 20.175C248.779 19.1 250.354 18.65 253.204 18.65ZM275.127 1.4C269.827 1.4 266.752 2.8 266.752 5.35C266.752 7.9 269.827 9.3 275.127 9.3C280.402 9.3 283.502 7.9 283.502 5.35C283.502 2.8 280.402 1.4 275.127 1.4ZM275.127 3.825C278.477 3.825 280.052 4.325 280.052 5.35C280.052 6.425 278.477 6.875 275.127 6.875C271.777 6.875 270.202 6.425 270.202 5.35C270.202 4.325 271.777 3.825 275.127 3.825ZM264.652 10.375V13H285.577V10.375H264.652ZM267.052 14.3V16.775H279.777V17.95H267.077V22.3H270.352V20.25H283.052V14.3H267.052ZM267.077 21.575V24.075H283.652V21.575H267.077ZM306.482 6V8.675H311.857V6H306.482ZM299.957 2.5V5C299.957 8.275 298.357 11.475 294.532 12.75L296.282 15.35C300.657 13.75 302.632 9.725 302.632 5V2.5H299.957ZM300.682 2.5V5.025C300.682 9.4 302.582 13.275 306.732 14.775L308.507 12.225C304.857 10.975 303.332 8 303.332 5.025V2.5H300.682ZM310.707 1.1V18.175H314.032V1.1H310.707ZM298.707 21.175V23.825H314.532V21.175H298.707ZM298.707 16.45V22.65H302.057V16.45H298.707ZM318.43 11.625V14.325H320.03C323.48 14.325 325.73 14.25 328.38 13.8L328.08 11.15C325.53 11.575 323.38 11.625 320.03 11.625H318.43ZM318.43 2.625V13.1H321.63V5.275H327.555V2.625H318.43ZM320.68 7.15V9.65H327.305V7.15H320.68ZM334.23 1.075V15.2H337.38V1.075H334.23ZM331.455 6.75V9.4H335.13V6.75H331.455ZM329.28 1.5V15.05H332.38V1.5H329.28ZM321.48 16.2V18.85H334.08V24.225H337.38V16.2H321.48ZM355.503 1.075V24.225H358.803V1.075H355.503ZM358.053 10.1V12.875H362.153V10.1H358.053ZM340.553 4.5V7.15H354.028V4.5H340.553ZM347.328 8.45C343.953 8.45 341.453 10.75 341.453 13.975C341.453 17.2 343.953 19.5 347.328 19.5C350.703 19.5 353.203 17.2 353.203 13.975C353.203 10.75 350.703 8.45 347.328 8.45ZM347.328 11.15C348.903 11.15 350.028 12.2 350.028 13.975C350.028 15.75 348.903 16.8 347.328 16.8C345.753 16.8 344.628 15.75 344.628 13.975C344.628 12.2 345.753 11.15 347.328 11.15ZM345.653 1.45V5.5H348.978V1.45H345.653ZM372.776 8.85V11.55H376.601V8.85H372.776ZM367.826 3.075V6.975C367.826 10.9 366.626 15.025 363.226 17.125L365.226 19.625C368.926 17.35 370.376 12.225 370.376 6.975V3.075H367.826ZM368.551 3.075V6.825C368.551 11.825 369.701 16.825 373.376 19.1L375.176 16.5C372.026 14.45 371.051 10.6 371.051 6.825V3.075H368.551ZM380.376 1.075V24.225H383.551V1.075H380.376ZM375.676 1.425V23.175H378.776V1.425H375.676ZM391.274 12.825V19.325H394.574V12.825H391.274ZM399.674 12.825V19.325H402.999V12.825H399.674ZM386.674 18.85V21.55H407.624V18.85H386.674ZM397.124 2.2C392.124 2.2 388.474 4.65 388.474 8.425C388.474 12.2 392.124 14.625 397.124 14.625C402.099 14.625 405.774 12.2 405.774 8.425C405.774 4.65 402.099 2.2 397.124 2.2ZM397.124 4.8C400.349 4.8 402.499 6.125 402.499 8.425C402.499 10.7 400.349 12.05 397.124 12.05C393.899 12.05 391.749 10.7 391.749 8.425C391.749 6.125 393.899 4.8 397.124 4.8ZM412.697 22.35C413.997 22.35 414.997 21.325 414.997 19.95C414.997 18.575 413.997 17.575 412.697 17.575C411.372 17.575 410.422 18.575 410.422 19.95C410.422 21.325 411.372 22.35 412.697 22.35Z" fill="black"/>
</svg>
