<svg width="322" height="24" viewBox="0 0 322 24" fill="none" xmlns="http://www.w3.org/2000/svg">
<path d="M0.45166 11.5V14.15H21.4017V11.5H0.45166ZM9.52666 13.175V18.05H12.8767V13.175H9.52666ZM3.02666 1.05V9.65H18.7517V1.05H3.02666ZM15.4767 3.65V7.05H6.27666V3.65H15.4767ZM2.87666 20.175V22.825H19.1017V20.175H2.87666ZM2.87666 16.1V21.05H6.17666V16.1H2.87666ZM40.1747 0.0749997V23.225H43.3247V0.0749997H40.1747ZM32.5497 7.975V10.675H36.3747V7.975H32.5497ZM35.4997 0.449999V22.175H38.5997V0.449999H35.4997ZM27.5497 3.85V6.225C27.5497 10.175 26.3747 14.325 22.9747 16.45L24.9497 18.9C28.6247 16.6 30.0497 11.425 30.0497 6.225V3.85H27.5497ZM28.2997 3.85V6.225C28.2997 11.325 29.6497 16.175 33.3247 18.35L35.2747 15.925C31.9247 13.975 30.7747 10.075 30.7747 6.225V3.85H28.2997ZM23.8497 2.4V5.075H34.1747V2.4H23.8497ZM46.4478 10.45V12.875H67.4228V10.45H46.4478ZM48.7978 14.025V16.275H61.6478V17.425H48.8478V21.5H52.1478V19.525H64.9228V14.025H48.7978ZM48.8478 20.8V23.05H65.5728V20.8H48.8478ZM49.0228 0.474999V2.7H61.5978V3.85H49.0478V7.825H52.3478V5.925H64.8728V0.474999H49.0228ZM49.0478 7.125V9.375H65.2978V7.125H49.0478ZM75.7849 1.975V13.15H86.8099V1.975H75.7849ZM83.5349 4.6V10.525H79.0599V4.6H83.5349ZM90.0099 0.0749997V16.95H93.3349V0.0749997H90.0099ZM92.3849 6.75V9.475H96.4099V6.75H92.3849ZM78.4099 20.175V22.825H94.1599V20.175H78.4099ZM78.4099 15.3V21.5H81.7349V15.3H78.4099ZM98.1329 9.05V11.675H119.083V9.05H98.1329ZM100.708 5.2V7.8H116.608V5.2H100.708ZM100.708 0.499999V7.45H104.008V3.15H116.408V0.499999H100.708ZM100.508 12.975V15.475H113.233V16.75H100.533V21.1H103.808V19.1H116.508V12.975H100.508ZM100.533 20.5V23.05H117.108V20.5H100.533ZM132.345 3.725V6.325C132.345 10.25 130.47 14.525 126.595 16.25L128.47 18.875C132.82 16.9 134.995 11.675 134.995 6.325V3.725H132.345ZM133.095 3.725V6.325C133.095 11.475 135.245 16.4 139.645 18.3L141.445 15.675C137.57 14.075 135.72 10.075 135.72 6.325V3.725H133.095ZM127.52 2.3V5.025H140.495V2.3H127.52ZM142.645 0.0749997V23.225H145.995V0.0749997H142.645ZM149.768 11.5V14.15H170.718V11.5H149.768ZM158.843 13.175V18.05H162.193V13.175H158.843ZM152.343 1.05V9.65H168.068V1.05H152.343ZM164.793 3.65V7.05H155.593V3.65H164.793ZM152.193 20.175V22.825H168.418V20.175H152.193ZM152.193 16.1V21.05H155.493V16.1H152.193ZM183.241 0.399998C177.941 0.399998 174.866 1.8 174.866 4.35C174.866 6.9 177.941 8.3 183.241 8.3C188.516 8.3 191.616 6.9 191.616 4.35C191.616 1.8 188.516 0.399998 183.241 0.399998ZM183.241 2.825C186.591 2.825 188.166 3.325 188.166 4.35C188.166 5.425 186.591 5.875 183.241 5.875C179.891 5.875 178.316 5.425 178.316 4.35C178.316 3.325 179.891 2.825 183.241 2.825ZM172.766 9.375V12H193.691V9.375H172.766ZM175.166 13.3V15.775H187.891V16.95H175.191V21.3H178.466V19.25H191.166V13.3H175.166ZM175.191 20.575V23.075H191.766V20.575H175.191ZM217.328 0.0749997V12.525H220.678V0.0749997H217.328ZM205.278 13.525V22.975H220.678V13.525H217.378V15.675H208.553V13.525H205.278ZM208.553 18.225H217.378V20.325H208.553V18.225ZM208.078 1.025C204.478 1.025 201.778 3.3 201.778 6.5C201.778 9.7 204.478 11.975 208.078 11.975C211.678 11.975 214.353 9.7 214.353 6.5C214.353 3.3 211.678 1.025 208.078 1.025ZM208.078 3.775C209.828 3.775 211.103 4.8 211.103 6.5C211.103 8.225 209.828 9.225 208.078 9.225C206.303 9.225 205.028 8.225 205.028 6.5C205.028 4.8 206.303 3.775 208.078 3.775ZM225.301 11.1V13.75H227.076C231.501 13.75 233.876 13.675 236.576 13.175L236.251 10.55C233.626 11.025 231.376 11.1 227.076 11.1H225.301ZM225.276 1.4V4.025H232.151V6.225H225.301V12.85H228.601V8.7H235.451V1.4H225.276ZM240.476 0.0999994V14.35H243.801V0.0999994H240.476ZM236.776 3.275V5.925H241.076V3.275H236.776ZM236.776 8.2V10.85H241.076V8.2H236.776ZM227.951 15.4V18.05H240.476V23.25H243.801V15.4H227.951ZM262.274 0.0749997V23.225H265.574V0.0749997H262.274ZM264.824 9.1V11.875H268.924V9.1H264.824ZM247.324 3.5V6.15H260.799V3.5H247.324ZM254.099 7.45C250.724 7.45 248.224 9.75 248.224 12.975C248.224 16.2 250.724 18.5 254.099 18.5C257.474 18.5 259.974 16.2 259.974 12.975C259.974 9.75 257.474 7.45 254.099 7.45ZM254.099 10.15C255.674 10.15 256.799 11.2 256.799 12.975C256.799 14.75 255.674 15.8 254.099 15.8C252.524 15.8 251.399 14.75 251.399 12.975C251.399 11.2 252.524 10.15 254.099 10.15ZM252.424 0.449999V4.5H255.749V0.449999H252.424ZM279.547 7.85V10.55H283.372V7.85H279.547ZM274.597 2.075V5.975C274.597 9.9 273.397 14.025 269.997 16.125L271.997 18.625C275.697 16.35 277.147 11.225 277.147 5.975V2.075H274.597ZM275.322 2.075V5.825C275.322 10.825 276.472 15.825 280.147 18.1L281.947 15.5C278.797 13.45 277.822 9.6 277.822 5.825V2.075H275.322ZM287.147 0.0749997V23.225H290.322V0.0749997H287.147ZM282.447 0.425V22.175H285.547V0.425H282.447ZM298.045 11.825V18.325H301.345V11.825H298.045ZM306.445 11.825V18.325H309.77V11.825H306.445ZM293.445 17.85V20.55H314.395V17.85H293.445ZM303.895 1.2C298.895 1.2 295.245 3.65 295.245 7.425C295.245 11.2 298.895 13.625 303.895 13.625C308.87 13.625 312.545 11.2 312.545 7.425C312.545 3.65 308.87 1.2 303.895 1.2ZM303.895 3.8C307.12 3.8 309.27 5.125 309.27 7.425C309.27 9.7 307.12 11.05 303.895 11.05C300.67 11.05 298.52 9.7 298.52 7.425C298.52 5.125 300.67 3.8 303.895 3.8ZM319.468 21.35C320.768 21.35 321.768 20.325 321.768 18.95C321.768 17.575 320.768 16.575 319.468 16.575C318.143 16.575 317.193 17.575 317.193 18.95C317.193 20.325 318.143 21.35 319.468 21.35Z" fill="black"/>
</svg>
