<svg width="286" height="27" viewBox="0 0 286 27" fill="none" xmlns="http://www.w3.org/2000/svg">
<path d="M7.0251 21.35C11.2751 21.35 13.8001 18.775 13.8001 15.75C13.8001 13.1 12.3251 11.65 10.1001 10.725L7.6751 9.725C6.1001 9.1 4.7751 8.6 4.7751 7.275C4.7751 6.075 5.8001 5.35 7.4251 5.35C8.9501 5.35 10.1751 5.9 11.3751 6.875L13.2251 4.55C11.7251 3.025 9.5751 2.175 7.4251 2.175C3.7001 2.175 1.0251 4.5 1.0251 7.525C1.0251 10.2 2.9251 11.725 4.7751 12.475L7.2501 13.525C8.9001 14.225 10.0251 14.675 10.0251 16.05C10.0251 17.325 9.0251 18.15 7.1001 18.15C5.4751 18.15 3.7001 17.35 2.4001 16.125L0.275098 18.675C2.0751 20.4 4.5251 21.35 7.0251 21.35ZM20.9974 21.35C22.2474 21.35 23.2224 21.075 23.9724 20.825L23.3724 18.15C22.9724 18.3 22.4474 18.475 21.9724 18.475C20.7474 18.475 20.0724 17.725 20.0724 16.125V9.9H23.5474V7.025H20.0724V3.225H17.0224L16.6224 7.025L14.4474 7.175V9.9H16.3974V16.125C16.3974 19.25 17.6724 21.35 20.9974 21.35ZM31.9095 21.35C33.6345 21.35 35.3845 20.775 36.7595 19.825L35.5345 17.55C34.5095 18.175 33.5095 18.525 32.3845 18.525C30.3095 18.525 28.8095 17.35 28.4845 15.05H37.1345C37.2095 14.7 37.2845 14.05 37.2845 13.35C37.2845 9.475 35.3095 6.675 31.4345 6.675C28.1345 6.675 24.9345 9.475 24.9345 14.025C24.9345 18.65 27.9845 21.35 31.9095 21.35ZM28.4345 12.6C28.7345 10.55 30.0345 9.5 31.5095 9.5C33.3095 9.5 34.1595 10.7 34.1595 12.6H28.4345ZM40.3358 26.375H44.0108V22.125L43.8858 19.85C44.9358 20.825 46.1358 21.35 47.3358 21.35C50.4108 21.35 53.2858 18.6 53.2858 13.8C53.2858 9.475 51.2358 6.675 47.7858 6.675C46.2858 6.675 44.8358 7.45 43.6858 8.475H43.6108L43.3108 7.025H40.3358V26.375ZM46.5358 18.325C45.7858 18.325 44.8858 18.075 44.0108 17.3V11.125C44.9608 10.15 45.8108 9.675 46.7358 9.675C48.6858 9.675 49.5108 11.15 49.5108 13.85C49.5108 16.875 48.2108 18.325 46.5358 18.325ZM62.1388 21H73.2888V18.025H69.8138V2.975H67.0888C65.8888 3.7 64.6388 4.175 62.7638 4.55V6.825H66.1388V18.025H62.1388V21ZM78.9099 21.35C80.2099 21.35 81.2099 20.325 81.2099 18.95C81.2099 17.575 80.2099 16.575 78.9099 16.575C77.5849 16.575 76.6349 17.575 76.6349 18.95C76.6349 20.325 77.5849 21.35 78.9099 21.35ZM95.2288 3.725V6.325C95.2288 10.25 93.3538 14.525 89.4788 16.25L91.3538 18.875C95.7038 16.9 97.8788 11.675 97.8788 6.325V3.725H95.2288ZM95.9788 3.725V6.325C95.9788 11.475 98.1288 16.4 102.529 18.3L104.329 15.675C100.454 14.075 98.6038 10.075 98.6038 6.325V3.725H95.9788ZM90.4038 2.3V5.025H103.379V2.3H90.4038ZM105.529 0.0749997V23.225H108.879V0.0749997H105.529ZM112.652 11.5V14.15H133.602V11.5H112.652ZM121.727 13.175V18.05H125.077V13.175H121.727ZM115.227 1.05V9.65H130.952V1.05H115.227ZM127.677 3.65V7.05H118.477V3.65H127.677ZM115.077 20.175V22.825H131.302V20.175H115.077ZM115.077 16.1V21.05H118.377V16.1H115.077ZM146.125 0.399998C140.825 0.399998 137.75 1.8 137.75 4.35C137.75 6.9 140.825 8.3 146.125 8.3C151.4 8.3 154.5 6.9 154.5 4.35C154.5 1.8 151.4 0.399998 146.125 0.399998ZM146.125 2.825C149.475 2.825 151.05 3.325 151.05 4.35C151.05 5.425 149.475 5.875 146.125 5.875C142.775 5.875 141.2 5.425 141.2 4.35C141.2 3.325 142.775 2.825 146.125 2.825ZM135.65 9.375V12H156.575V9.375H135.65ZM138.05 13.3V15.775H150.775V16.95H138.075V21.3H141.35V19.25H154.05V13.3H138.05ZM138.075 20.575V23.075H154.65V20.575H138.075ZM181.555 0.0749997V12.525H184.905V0.0749997H181.555ZM169.505 13.525V22.975H184.905V13.525H181.605V15.675H172.78V13.525H169.505ZM172.78 18.225H181.605V20.325H172.78V18.225ZM172.305 1.025C168.705 1.025 166.005 3.3 166.005 6.5C166.005 9.7 168.705 11.975 172.305 11.975C175.905 11.975 178.58 9.7 178.58 6.5C178.58 3.3 175.905 1.025 172.305 1.025ZM172.305 3.775C174.055 3.775 175.33 4.8 175.33 6.5C175.33 8.225 174.055 9.225 172.305 9.225C170.53 9.225 169.255 8.225 169.255 6.5C169.255 4.8 170.53 3.775 172.305 3.775ZM189.528 11.1V13.75H191.303C195.728 13.75 198.103 13.675 200.803 13.175L200.478 10.55C197.853 11.025 195.603 11.1 191.303 11.1H189.528ZM189.503 1.4V4.025H196.378V6.225H189.528V12.85H192.828V8.7H199.678V1.4H189.503ZM204.703 0.0999994V14.35H208.028V0.0999994H204.703ZM201.003 3.275V5.925H205.303V3.275H201.003ZM201.003 8.2V10.85H205.303V8.2H201.003ZM192.178 15.4V18.05H204.703V23.25H208.028V15.4H192.178ZM226.501 0.0749997V23.225H229.801V0.0749997H226.501ZM229.051 9.1V11.875H233.151V9.1H229.051ZM211.551 3.5V6.15H225.026V3.5H211.551ZM218.326 7.45C214.951 7.45 212.451 9.75 212.451 12.975C212.451 16.2 214.951 18.5 218.326 18.5C221.701 18.5 224.201 16.2 224.201 12.975C224.201 9.75 221.701 7.45 218.326 7.45ZM218.326 10.15C219.901 10.15 221.026 11.2 221.026 12.975C221.026 14.75 219.901 15.8 218.326 15.8C216.751 15.8 215.626 14.75 215.626 12.975C215.626 11.2 216.751 10.15 218.326 10.15ZM216.651 0.449999V4.5H219.976V0.449999H216.651ZM243.774 7.85V10.55H247.599V7.85H243.774ZM238.824 2.075V5.975C238.824 9.9 237.624 14.025 234.224 16.125L236.224 18.625C239.924 16.35 241.374 11.225 241.374 5.975V2.075H238.824ZM239.549 2.075V5.825C239.549 10.825 240.699 15.825 244.374 18.1L246.174 15.5C243.024 13.45 242.049 9.6 242.049 5.825V2.075H239.549ZM251.374 0.0749997V23.225H254.549V0.0749997H251.374ZM246.674 0.425V22.175H249.774V0.425H246.674ZM262.272 11.825V18.325H265.572V11.825H262.272ZM270.672 11.825V18.325H273.997V11.825H270.672ZM257.672 17.85V20.55H278.622V17.85H257.672ZM268.122 1.2C263.122 1.2 259.472 3.65 259.472 7.425C259.472 11.2 263.122 13.625 268.122 13.625C273.097 13.625 276.772 11.2 276.772 7.425C276.772 3.65 273.097 1.2 268.122 1.2ZM268.122 3.8C271.347 3.8 273.497 5.125 273.497 7.425C273.497 9.7 271.347 11.05 268.122 11.05C264.897 11.05 262.747 9.7 262.747 7.425C262.747 5.125 264.897 3.8 268.122 3.8ZM283.695 21.35C284.995 21.35 285.995 20.325 285.995 18.95C285.995 17.575 284.995 16.575 283.695 16.575C282.37 16.575 281.42 17.575 281.42 18.95C281.42 20.325 282.37 21.35 283.695 21.35Z" fill="black"/>
</svg>
